<?xml version="1.0" standalone="no"?>
<!DOCTYPE svg PUBLIC "-//W3C//DTD SVG 20010904//EN"
 "http://www.w3.org/TR/2001/REC-SVG-20010904/DTD/svg10.dtd">
<svg version="1.0" xmlns="http://www.w3.org/2000/svg"
 width="260.000000pt" height="260.000000pt" viewBox="0 0 260.000000 260.000000"
 preserveAspectRatio="xMidYMid meet">
<metadata>
Created by potrace 1.14, written by Peter Selinger 2001-2017
</metadata>
<g transform="translate(0.000000,260.000000) scale(0.100000,-0.100000)"
fill="#000000" stroke="none">
<path d="M924 2472 c0 -60 -6 -130 -19 -217 -5 -39 -42 -122 -58 -132 -6 -4
-30 -8 -52 -8 -174 -7 -305 -135 -362 -356 -13 -52 -22 -69 -35 -69 -9 0 -20
-5 -24 -12 -8 -13 -17 -167 -16 -283 1 -65 3 -83 18 -157 3 -15 5 -30 5 -33 0
-2 11 -29 24 -60 14 -30 24 -58 24 -63 -2 -21 30 -95 65 -154 53 -87 128 -166
209 -222 38 -25 61 -47 54 -50 -7 -3 -2 -3 9 -1 13 4 29 -1 40 -12 10 -10 19
-17 21 -15 8 7 92 -31 87 -39 -3 -5 2 -6 11 -3 17 7 95 -14 95 -25 0 -4 13
-14 29 -24 19 -11 29 -24 26 -35 -6 -34 -48 -103 -89 -148 l-41 -45 -95 -4
c-52 -2 -104 -6 -115 -8 -11 -3 -27 -6 -36 -6 -9 -1 -27 -10 -40 -21 -23 -19
-23 -21 -6 -34 11 -8 26 -12 35 -9 10 3 7 -2 -6 -12 -19 -14 -21 -20 -11 -32
16 -18 67 -12 132 17 26 11 62 22 81 24 18 2 38 6 45 10 6 4 11 1 11 -6 0 -9
3 -9 8 -2 9 13 42 14 42 1 0 -5 7 -4 15 3 8 7 15 9 15 5 0 -5 9 0 19 9 21 19
18 46 -5 46 -22 0 -17 15 24 67 21 26 49 71 62 98 29 61 23 55 48 60 11 2 31
9 44 16 30 16 89 19 107 5 11 -8 13 -8 8 0 -4 7 2 14 16 18 12 3 24 1 25 -4 2
-6 8 -8 13 -4 5 3 9 1 9 -3 0 -5 14 -17 30 -27 17 -9 28 -21 26 -25 -3 -4 -8
-23 -11 -42 -12 -74 -62 -199 -79 -200 -34 -2 -68 -13 -126 -40 -75 -35 -100
-55 -100 -81 0 -14 7 -17 34 -15 19 1 32 5 30 8 -5 9 96 62 104 55 3 -3 1 -6
-5 -6 -6 0 -18 -16 -28 -36 -13 -28 -14 -38 -5 -50 15 -17 40 -19 40 -3 0 6 7
8 16 5 8 -3 12 -2 9 4 -8 13 42 90 59 90 7 0 25 -18 39 -39 46 -69 107 -65 74
5 -10 19 -14 40 -11 46 5 7 2 8 -5 4 -15 -10 -42 23 -36 42 3 7 0 10 -5 7 -6
-3 -10 -3 -10 2 0 7 43 126 63 173 5 14 11 36 11 48 1 25 22 45 74 74 17 9 45
36 62 60 18 23 36 42 42 40 5 -1 7 2 3 8 -7 11 14 50 47 85 16 17 20 18 29 5
9 -12 10 -12 5 3 -5 15 27 72 54 97 3 3 21 35 40 72 19 36 38 64 42 62 4 -3 5
2 2 10 -6 15 39 66 58 66 5 0 16 7 25 15 8 8 19 12 25 9 7 -5 9 4 6 24 -2 17
-1 29 2 27 8 -5 50 32 50 44 0 5 -13 23 -30 41 -35 37 -34 34 -17 52 6 8 22
32 34 54 12 21 27 38 33 36 6 -1 8 2 5 8 -9 14 23 82 35 75 6 -3 7 0 5 7 -3 7
6 37 20 66 14 28 25 54 25 57 0 3 6 18 13 33 40 78 76 208 81 295 3 37 7 71
11 77 3 5 2 10 -2 10 -5 0 -10 15 -11 33 -6 84 -39 135 -74 116 -20 -11 -58
-46 -58 -54 0 -3 -9 -24 -19 -47 -10 -24 -28 -73 -41 -111 -13 -37 -24 -66
-25 -65 -5 6 20 140 25 135 5 -5 10 58 15 173 4 116 -55 151 -118 68 -25 -32
-47 -77 -53 -109 -2 -8 -8 -26 -13 -40 -9 -21 -10 -19 -10 18 -1 54 -18 64
-47 28 -17 -22 -53 -110 -59 -145 -1 -3 -4 -21 -8 -40 -14 -74 -26 -222 -30
-362 -1 -43 -5 -64 -12 -58 -17 13 -167 86 -258 126 -49 21 -93 46 -98 56 -5
10 -20 23 -33 30 -31 17 -103 84 -141 134 -42 54 -145 157 -177 177 l-27 17
20 45 c18 42 28 139 16 152 -3 3 -9 -11 -12 -31 -4 -20 -11 -36 -16 -36 -5 0
-8 -6 -6 -12 1 -7 -3 -12 -10 -11 -7 2 -10 -3 -7 -11 5 -12 -22 -36 -39 -36
-2 0 1 28 8 63 6 34 11 75 11 90 -1 15 1 27 4 27 3 0 4 24 3 52 -1 29 -2 53
-3 53 -1 0 -4 15 -6 33 -6 39 -31 102 -42 102 -4 0 -7 -30 -8 -68z"/>
<path d="M1036 2078 c3 -5 10 -6 15 -3 13 9 11 12 -6 12 -8 0 -12 -4 -9 -9z"/>
<path d="M1916 938 c3 -5 10 -6 15 -3 13 9 11 12 -6 12 -8 0 -12 -4 -9 -9z"/>
<path d="M1839 833 c-13 -16 -12 -17 4 -4 16 13 21 21 13 21 -2 0 -10 -8 -17
-17z"/>
<path d="M1193 485 c0 -8 4 -12 9 -9 5 3 6 10 3 15 -9 13 -12 11 -12 -6z"/>
<path d="M1390 479 c0 -5 5 -7 10 -4 6 3 10 8 10 11 0 2 -4 4 -10 4 -5 0 -10
-5 -10 -11z"/>
<path d="M1393 125 c0 -8 4 -12 9 -9 5 3 6 10 3 15 -9 13 -12 11 -12 -6z"/>
</g>
</svg>
