<svg xmlns="http://www.w3.org/2000/svg" width="375" viewBox="0 0 375 375" height="375" version="1.0"><defs><clipPath id="a"><path d="M 44.726562 5.914062 L 330.476562 5.914062 L 330.476562 368.914062 L 44.726562 368.914062 Z M 44.726562 5.914062"/></clipPath></defs><g clip-path="url(#a)"><path d="M 322.621094 215.875 L 304.421875 197.695312 L 284.949219 217.140625 L 265.480469 197.695312 L 246.011719 217.140625 L 226.542969 197.695312 L 207.074219 217.140625 L 187.601562 197.695312 L 168.132812 217.140625 L 148.664062 197.695312 L 129.195312 217.140625 L 109.726562 197.695312 L 90.253906 217.140625 L 70.785156 197.695312 L 52.582031 215.875 C 47.765625 212.230469 44.828125 206.53125 44.828125 200.378906 C 44.828125 189.640625 53.546875 180.933594 64.296875 180.933594 L 310.910156 180.933594 C 321.660156 180.933594 330.378906 189.640625 330.378906 200.378906 C 330.378906 206.53125 327.4375 212.230469 322.621094 215.875 Z M 292.480469 368.914062 L 279.042969 368.914062 L 291.210938 229.21875 L 304.421875 216.027344 L 316.917969 228.511719 Z M 246.289062 368.914062 L 252.375 229.117188 L 265.480469 216.027344 L 278.234375 228.761719 L 266.015625 368.914062 Z M 233.3125 368.914062 L 213.5625 368.914062 L 213.5625 228.992188 L 226.542969 216.027344 L 239.394531 228.863281 Z M 174.625 368.914062 L 174.625 228.992188 L 187.601562 216.027344 L 200.582031 228.992188 L 200.582031 368.914062 Z M 161.644531 368.914062 L 141.894531 368.914062 L 135.8125 228.863281 L 148.664062 216.027344 L 161.644531 228.992188 Z M 109.191406 368.914062 L 96.972656 228.761719 L 109.726562 216.027344 L 122.832031 229.117188 L 128.914062 368.914062 Z M 58.289062 228.511719 L 70.785156 216.027344 L 83.992188 229.21875 L 96.160156 368.914062 L 82.726562 368.914062 Z M 77.277344 129.074219 L 297.929688 129.074219 C 308.679688 129.074219 317.402344 137.785156 317.402344 148.519531 C 317.402344 159.257812 308.679688 167.96875 297.929688 167.96875 L 77.277344 167.96875 C 66.527344 167.96875 57.804688 159.257812 57.804688 148.519531 C 57.804688 137.785156 66.527344 129.074219 77.277344 129.074219 Z M 83.765625 96.664062 C 83.765625 85.929688 92.484375 77.21875 103.234375 77.21875 L 233.03125 77.21875 C 248.523438 77.21875 261.527344 66.328125 264.722656 51.796875 C 279.882812 54.503906 291.441406 67.773438 291.441406 83.699219 C 291.441406 101.578125 276.890625 116.109375 258.992188 116.109375 L 103.234375 116.109375 C 92.484375 116.109375 83.765625 107.398438 83.765625 96.664062 Z M 148.664062 17.765625 C 148.664062 11.230469 153.988281 5.914062 160.527344 5.914062 C 163.695312 5.914062 166.6875 7.15625 168.917969 9.382812 L 183.015625 23.460938 C 185.550781 25.992188 189.65625 25.992188 192.191406 23.460938 L 206.285156 9.382812 C 208.519531 7.15625 211.507812 5.914062 214.679688 5.914062 C 221.21875 5.914062 226.542969 11.230469 226.542969 17.765625 C 226.542969 20.929688 225.300781 23.917969 223.070312 26.144531 L 187.601562 61.570312 L 152.136719 26.144531 C 149.90625 23.917969 148.664062 20.929688 148.664062 17.765625"/></g></svg>