<svg xmlns="http://www.w3.org/2000/svg" width="375" viewBox="0 0 375 375" height="375" version="1.0"><defs><clipPath id="a"><path d="M 47 8 L 326 8 L 326 367.894531 L 47 367.894531 Z M 47 8"/></clipPath></defs><g clip-path="url(#a)"><path fill="#292627" d="M 321.203125 199.203125 C 323.589844 190.265625 316.667969 186.355469 308.3125 186.605469 L 308.300781 186.605469 C 308.132812 185.5625 307.777344 184.707031 307.300781 183.976562 C 317.417969 176.972656 319.753906 167.152344 314.832031 155.203125 C 314.558594 154.539062 314.398438 154.175781 314.300781 154.054688 C 311.609375 148.539062 306.898438 145.371094 301.171875 143.75 L 301.117188 143.738281 C 300.472656 143.554688 299.820312 143.398438 299.160156 143.257812 C 298.941406 143.210938 298.722656 143.167969 298.503906 143.125 C 298.011719 143.027344 297.515625 142.941406 297.015625 142.863281 C 296.785156 142.832031 296.554688 142.792969 296.328125 142.761719 C 295.726562 142.675781 295.117188 142.605469 294.503906 142.546875 C 294.390625 142.535156 294.277344 142.519531 294.167969 142.507812 L 294.074219 142.503906 L 294.144531 142.363281 L 294.199219 142.261719 L 294.277344 142.101562 C 294.382812 141.886719 294.476562 141.667969 294.566406 141.445312 L 294.585938 141.398438 L 294.621094 141.3125 L 294.636719 141.285156 C 294.730469 141.039062 294.816406 140.789062 294.894531 140.535156 L 294.917969 140.457031 L 294.976562 140.265625 C 295.035156 140.058594 295.085938 139.855469 295.136719 139.652344 L 295.175781 139.5 L 295.199219 139.382812 C 295.261719 139.097656 295.320312 138.804688 295.367188 138.503906 C 295.476562 137.8125 295.554688 137.125 295.625 136.445312 L 295.636719 136.300781 C 295.648438 136.195312 295.648438 136.097656 295.65625 135.992188 C 295.675781 135.792969 295.679688 135.601562 295.691406 135.402344 C 295.71875 135.085938 295.742188 134.769531 295.753906 134.457031 C 295.753906 134.359375 295.761719 134.261719 295.765625 134.164062 C 295.769531 133.953125 295.761719 133.75 295.761719 133.546875 C 295.765625 133.367188 295.769531 133.191406 295.769531 133.011719 C 295.765625 132.855469 295.765625 132.695312 295.761719 132.539062 C 295.757812 132.386719 295.757812 132.234375 295.75 132.089844 C 295.742188 131.882812 295.722656 131.691406 295.710938 131.488281 C 295.691406 131.269531 295.683594 131.042969 295.664062 130.824219 C 295.65625 130.726562 295.648438 130.632812 295.640625 130.539062 C 295.625 130.386719 295.613281 130.234375 295.597656 130.078125 C 295.574219 129.902344 295.546875 129.738281 295.523438 129.5625 C 295.5 129.355469 295.46875 129.144531 295.433594 128.933594 C 295.394531 128.664062 295.355469 128.394531 295.304688 128.132812 C 295.28125 127.988281 295.25 127.855469 295.222656 127.714844 C 295.191406 127.566406 295.15625 127.417969 295.125 127.269531 C 295.046875 126.925781 294.976562 126.582031 294.886719 126.242188 L 294.828125 126.035156 C 294.800781 125.929688 294.765625 125.820312 294.734375 125.714844 C 294.609375 125.277344 294.476562 124.847656 294.335938 124.421875 C 294.289062 124.285156 294.238281 124.152344 294.1875 124.011719 L 294.183594 124.003906 C 294.132812 123.867188 294.085938 123.734375 294.035156 123.597656 C 293.914062 123.28125 293.789062 122.96875 293.660156 122.660156 C 293.613281 122.546875 293.5625 122.441406 293.515625 122.332031 C 293.433594 122.148438 293.351562 121.960938 293.265625 121.78125 L 293.203125 121.648438 C 293.09375 121.414062 292.976562 121.1875 292.859375 120.957031 L 292.730469 120.714844 C 292.480469 120.242188 292.21875 119.773438 291.941406 119.320312 L 291.839844 119.152344 C 291.542969 118.675781 291.230469 118.203125 290.902344 117.742188 L 290.84375 117.652344 C 290.496094 117.164062 290.136719 116.691406 289.757812 116.226562 L 289.742188 116.207031 C 282.300781 107.042969 268.84375 101.703125 254.328125 99.472656 C 253.25 99.308594 252.175781 99.175781 251.097656 99.070312 C 251.207031 98.847656 251.308594 98.625 251.414062 98.398438 C 251.691406 97.824219 251.933594 97.242188 252.164062 96.648438 C 252.242188 96.460938 252.304688 96.273438 252.375 96.082031 C 252.523438 95.671875 252.675781 95.261719 252.8125 94.839844 C 252.878906 94.617188 252.945312 94.394531 253.011719 94.175781 C 253.128906 93.777344 253.242188 93.375 253.347656 92.972656 C 253.410156 92.746094 253.460938 92.519531 253.515625 92.292969 C 253.617188 91.867188 253.707031 91.433594 253.792969 91.003906 C 253.832031 90.800781 253.871094 90.601562 253.910156 90.398438 C 254.007812 89.835938 254.09375 89.277344 254.167969 88.710938 L 254.199219 88.480469 C 254.28125 87.820312 254.34375 87.15625 254.394531 86.488281 C 254.40625 86.34375 254.410156 86.203125 254.417969 86.054688 C 254.449219 85.535156 254.472656 85.015625 254.484375 84.492188 C 254.488281 84.28125 254.488281 84.070312 254.492188 83.867188 C 254.496094 83.394531 254.492188 82.925781 254.484375 82.449219 C 254.480469 82.226562 254.476562 82.007812 254.464844 81.792969 C 254.449219 81.308594 254.425781 80.824219 254.394531 80.335938 C 254.382812 80.136719 254.367188 79.9375 254.351562 79.738281 C 254.3125 79.164062 254.253906 78.589844 254.191406 78.011719 C 254.179688 77.902344 254.171875 77.792969 254.160156 77.6875 C 254.074219 76.976562 253.976562 76.269531 253.867188 75.554688 L 253.847656 75.429688 C 253.742188 74.777344 253.628906 74.128906 253.503906 73.480469 C 253.46875 73.296875 253.429688 73.121094 253.390625 72.9375 C 253.292969 72.417969 253.179688 71.898438 253.066406 71.382812 C 253.015625 71.171875 252.964844 70.960938 252.917969 70.757812 C 252.800781 70.253906 252.675781 69.75 252.539062 69.25 C 252.488281 69.046875 252.4375 68.84375 252.378906 68.640625 C 252.230469 68.09375 252.078125 67.550781 251.914062 67.007812 C 251.871094 66.859375 251.832031 66.710938 251.78125 66.558594 C 251.359375 65.164062 250.890625 63.773438 250.386719 62.390625 C 250.320312 62.21875 250.253906 62.046875 250.1875 61.867188 C 250 61.363281 249.804688 60.859375 249.609375 60.359375 C 249.519531 60.136719 249.425781 59.914062 249.335938 59.695312 C 249.152344 59.234375 248.957031 58.777344 248.765625 58.320312 C 248.667969 58.09375 248.570312 57.871094 248.46875 57.644531 C 248.269531 57.175781 248.058594 56.714844 247.84375 56.25 C 247.75 56.050781 247.664062 55.847656 247.566406 55.644531 C 247.304688 55.078125 247.027344 54.507812 246.746094 53.949219 L 246.625 53.691406 C 246.304688 53.046875 245.976562 52.410156 245.640625 51.777344 C 245.542969 51.589844 245.441406 51.40625 245.339844 51.21875 C 245.105469 50.78125 244.863281 50.335938 244.621094 49.902344 C 244.488281 49.667969 244.355469 49.433594 244.222656 49.199219 C 244 48.816406 243.78125 48.4375 243.558594 48.0625 C 243.414062 47.816406 243.269531 47.570312 243.125 47.332031 C 242.902344 46.960938 242.671875 46.59375 242.445312 46.230469 C 242.304688 46 242.160156 45.765625 242.015625 45.535156 C 241.761719 45.136719 241.5 44.738281 241.242188 44.347656 C 241.121094 44.167969 241.003906 43.980469 240.882812 43.800781 C 240.519531 43.261719 240.160156 42.730469 239.792969 42.210938 L 239.792969 42.214844 C 237.671875 39.195312 235.441406 36.449219 233.191406 34.0625 C 217.863281 17.847656 200.0625 7.453125 177.433594 9.113281 C 181.558594 14.671875 187.496094 19.300781 188.925781 26.4375 C 189.851562 31.078125 189.355469 34.972656 187.832031 38.261719 L 187.820312 38.261719 C 181.273438 52.359375 155.742188 55.25 141.378906 57.054688 C 141.152344 57.082031 140.929688 57.109375 140.714844 57.136719 C 140.582031 57.15625 140.449219 57.171875 140.316406 57.1875 C 139.925781 57.238281 139.539062 57.289062 139.160156 57.335938 C 137.699219 57.53125 136.257812 57.703125 134.84375 57.882812 C 133.453125 58.054688 132.089844 58.234375 130.753906 58.429688 L 130.699219 58.4375 C 124.828125 59.320312 119.476562 60.675781 114.898438 64.21875 L 114.863281 64.246094 C 114.597656 64.449219 114.339844 64.664062 114.074219 64.882812 L 113.960938 64.984375 C 113.730469 65.179688 113.503906 65.386719 113.277344 65.601562 L 113.097656 65.765625 C 112.894531 65.960938 112.6875 66.160156 112.484375 66.371094 L 112.269531 66.59375 C 112.082031 66.789062 111.902344 66.992188 111.714844 67.199219 C 111.632812 67.289062 111.554688 67.378906 111.46875 67.476562 C 111.386719 67.574219 111.304688 67.675781 111.21875 67.773438 L 111.160156 67.847656 L 110.957031 68.097656 C 110.867188 68.203125 110.785156 68.304688 110.699219 68.414062 C 110.570312 68.574219 110.445312 68.746094 110.316406 68.917969 L 110.121094 69.175781 L 109.953125 69.40625 C 109.707031 69.742188 109.46875 70.097656 109.230469 70.457031 C 102.308594 81.050781 103.484375 89.816406 108.851562 96.914062 C 106.675781 97.199219 104.5 97.59375 102.316406 98.121094 C 100.023438 98.675781 97.621094 99.5625 95.292969 100.757812 L 95.226562 100.796875 C 94.234375 101.304688 93.253906 101.871094 92.296875 102.496094 L 92.242188 102.53125 C 91.785156 102.832031 91.332031 103.152344 90.882812 103.476562 L 90.734375 103.589844 C 89.847656 104.25 88.992188 104.960938 88.179688 105.722656 L 88.039062 105.851562 C 87.644531 106.226562 87.257812 106.613281 86.882812 107.011719 L 86.753906 107.15625 C 85.996094 107.972656 85.292969 108.839844 84.640625 109.757812 L 84.507812 109.941406 C 84.195312 110.398438 83.890625 110.867188 83.605469 111.347656 L 83.539062 111.460938 C 83.257812 111.941406 82.992188 112.429688 82.746094 112.933594 L 82.703125 113.011719 C 82.457031 113.519531 82.226562 114.042969 82.015625 114.574219 L 81.925781 114.796875 C 81.769531 115.210938 81.621094 115.628906 81.484375 116.050781 L 81.464844 116.113281 C 81.429688 116.21875 81.394531 116.328125 81.363281 116.441406 L 81.351562 116.488281 C 81.207031 116.964844 81.085938 117.453125 80.972656 117.941406 L 80.925781 118.167969 L 80.878906 118.390625 C 80.769531 118.929688 80.679688 119.472656 80.609375 120.03125 L 80.589844 120.175781 L 80.566406 120.429688 C 80.503906 121.03125 80.453125 121.640625 80.4375 122.269531 C 80.210938 130.285156 83.007812 136.675781 87.910156 141.746094 C 66.847656 138.898438 56.585938 145.34375 55.800781 158.453125 C 55.796875 158.550781 55.796875 158.644531 55.789062 158.738281 C 55.765625 159.207031 55.757812 159.6875 55.757812 160.171875 C 55.757812 160.332031 55.757812 160.5 55.761719 160.664062 C 55.769531 161.097656 55.789062 161.535156 55.8125 161.984375 C 55.824219 162.175781 55.832031 162.375 55.851562 162.570312 C 55.867188 162.773438 55.882812 162.980469 55.902344 163.183594 C 55.914062 163.34375 55.9375 163.507812 55.953125 163.675781 L 55.984375 163.933594 C 56.003906 164.125 56.019531 164.316406 56.046875 164.503906 L 56.074219 164.761719 C 56.152344 165.328125 56.242188 165.902344 56.34375 166.484375 C 56.449219 167.105469 56.59375 167.699219 56.761719 168.285156 C 55.792969 168.886719 54.941406 169.605469 54.269531 170.429688 C 53.796875 171.007812 53.417969 171.648438 53.15625 172.328125 L 53.140625 172.359375 C 53.082031 172.523438 53.027344 172.6875 52.976562 172.855469 L 52.960938 172.917969 C 52.820312 173.433594 52.746094 173.972656 52.746094 174.535156 L 52.742188 174.578125 C 52.746094 174.757812 52.753906 174.9375 52.769531 175.121094 L 52.785156 175.226562 C 52.84375 175.800781 52.984375 176.398438 53.214844 177.019531 L 53.226562 177.058594 C 53.296875 177.246094 53.378906 177.445312 53.472656 177.636719 L 53.539062 177.78125 C 53.734375 178.199219 53.964844 178.621094 54.25 179.0625 C 53.996094 179.046875 53.75 179.046875 53.519531 179.058594 C 46.019531 179.445312 43.84375 192.871094 53.777344 196.996094 C 46.054688 200.863281 54.082031 214.597656 62.507812 214.242188 C 63.589844 214.199219 64.675781 213.902344 65.738281 213.34375 L 95.59375 310.144531 L 98.441406 319.390625 L 107.597656 349.066406 C 110.765625 358.960938 142.085938 367.644531 184.636719 367.644531 C 227.179688 367.644531 258.410156 359.59375 261.671875 349.066406 L 300.234375 224.015625 C 302.042969 224.996094 304.066406 225.511719 305.972656 225.472656 C 309.75 225.394531 313.074219 223.167969 313.378906 218.175781 C 313.960938 218.289062 314.542969 218.328125 315.125 218.296875 C 323.820312 217.855469 331.140625 202 321.203125 199.203125"/></g></svg>