<svg xmlns="http://www.w3.org/2000/svg" width="375" viewBox="0 0 375 375" height="375" version="1.0"><defs><clipPath id="a"><path d="M 88 246 L 289 246 L 289 368.929688 L 88 368.929688 Z M 88 246"/></clipPath><clipPath id="b"><path d="M 44.511719 70 L 330 70 L 330 251 L 44.511719 251 Z M 44.511719 70"/></clipPath></defs><g clip-path="url(#a)"><path d="M 262.214844 254.082031 C 254.28125 258.105469 245.511719 260.210938 236.558594 260.210938 C 223.800781 260.210938 211.429688 255.863281 201.464844 248.050781 C 191.503906 255.863281 179.140625 260.210938 166.367188 260.210938 C 152.597656 260.210938 139.5625 255.3125 129.320312 246.523438 C 119.078125 255.3125 106.035156 260.210938 92.269531 260.210938 C 91.023438 260.210938 89.796875 260.105469 88.566406 260.019531 L 102.457031 368.914062 L 274.070312 368.914062 L 288.195312 258.328125 C 286.804688 258.4375 285.421875 258.542969 284.015625 258.542969 C 276.496094 258.542969 269.058594 257.019531 262.214844 254.082031"/></g><g clip-path="url(#b)"><path d="M 309.578125 165.160156 C 312.550781 157.449219 314.214844 149.082031 314.214844 140.300781 C 314.214844 104.351562 286.976562 74.78125 252.023438 71.121094 C 251.632812 93.511719 233.378906 111.625 210.902344 111.625 C 190.023438 111.625 172.90625 95.933594 170.269531 75.75 C 161.683594 72.332031 152.332031 70.414062 142.515625 70.414062 C 100.886719 70.414062 67.136719 104.167969 67.136719 145.808594 C 67.136719 151.34375 67.765625 156.71875 68.898438 161.898438 C 54.535156 170.050781 44.847656 185.476562 44.847656 203.152344 C 44.847656 229.371094 66.070312 250.617188 92.269531 250.617188 C 107.273438 250.617188 120.636719 243.632812 129.320312 232.773438 C 138.007812 243.632812 151.371094 250.617188 166.367188 250.617188 C 180.296875 250.617188 192.777344 244.585938 201.464844 234.996094 C 210.160156 244.585938 222.625 250.617188 236.558594 250.617188 C 245.886719 250.617188 254.554688 247.894531 261.890625 243.257812 C 268.429688 246.886719 275.976562 248.949219 284.015625 248.949219 C 309.292969 248.949219 329.78125 228.464844 329.78125 203.152344 C 329.78125 187.347656 321.761719 173.398438 309.578125 165.160156"/></g><path d="M 210.902344 102.03125 C 228.355469 102.03125 242.5 87.875 242.5 70.414062 C 242.5 58.316406 235.648438 47.9375 225.691406 42.625 C 226.207031 41.644531 226.542969 40.554688 226.4375 39.367188 C 226.207031 36.867188 226.726562 34.726562 227.664062 32.84375 C 229.894531 28.371094 234.714844 25.515625 239.074219 23.816406 C 253.1875 18.300781 272.273438 20.644531 278.351562 28.621094 C 280.347656 31.242188 284.097656 31.738281 286.707031 29.75 C 289.324219 27.75 289.820312 24.003906 287.824219 21.390625 C 277.496094 7.847656 252.046875 5.964844 234.75 12.695312 C 225.167969 16.429688 218.789062 22.410156 216.046875 29.730469 C 214.925781 32.667969 214.417969 35.824219 214.550781 39.164062 C 213.335938 39.015625 212.160156 38.792969 210.902344 38.792969 C 193.460938 38.792969 179.316406 52.933594 179.316406 70.414062 C 179.316406 87.875 193.460938 102.03125 210.902344 102.03125"/></svg>