<svg xmlns="http://www.w3.org/2000/svg" width="375" viewBox="0 0 375 375" height="375" version="1.0"><defs><clipPath id="a"><path d="M 2.0625 200 L 372.5625 200 L 372.5625 358.953125 L 2.0625 358.953125 Z M 2.0625 200"/></clipPath></defs><path d="M 165.535156 22.199219 C 166.378906 22.394531 167.210938 22.632812 168.027344 22.910156 C 168.847656 23.1875 169.652344 23.507812 170.441406 23.863281 C 171.230469 24.222656 171.996094 24.617188 172.746094 25.050781 C 173.496094 25.484375 174.222656 25.953125 174.925781 26.457031 C 175.628906 26.960938 176.308594 27.5 176.957031 28.070312 C 177.609375 28.640625 178.230469 29.242188 178.824219 29.875 C 179.414062 30.507812 179.972656 31.167969 180.5 31.855469 C 181.027344 32.542969 181.519531 33.253906 181.976562 33.988281 C 182.433594 34.726562 182.855469 35.480469 183.238281 36.257812 C 183.621094 37.035156 183.964844 37.828125 184.269531 38.640625 C 184.574219 39.453125 184.839844 40.273438 185.0625 41.113281 C 185.289062 41.949219 185.46875 42.792969 185.609375 43.648438 C 185.753906 44.503906 185.851562 45.363281 185.910156 46.230469 C 185.964844 47.09375 185.980469 47.957031 185.953125 48.824219 C 185.921875 49.691406 185.851562 50.554688 185.742188 51.414062 C 185.628906 52.273438 185.472656 53.125 185.277344 53.96875 C 185.082031 54.8125 184.84375 55.644531 184.566406 56.464844 C 184.289062 57.285156 183.96875 58.089844 183.613281 58.878906 C 183.257812 59.667969 182.863281 60.4375 182.429688 61.1875 C 181.996094 61.9375 181.527344 62.667969 181.023438 63.371094 C 180.519531 64.074219 179.984375 64.753906 179.414062 65.40625 C 178.84375 66.058594 178.242188 66.679688 177.613281 67.269531 C 176.980469 67.863281 176.320312 68.425781 175.632812 68.953125 C 174.949219 69.480469 174.238281 69.972656 173.503906 70.429688 C 172.769531 70.886719 172.011719 71.308594 171.238281 71.691406 C 170.460938 72.074219 169.667969 72.417969 168.859375 72.726562 C 168.046875 73.03125 167.226562 73.296875 166.390625 73.519531 C 165.554688 73.742188 164.710938 73.925781 163.855469 74.070312 C 163.003906 74.210938 162.144531 74.308594 161.28125 74.367188 C 160.417969 74.421875 159.550781 74.4375 158.6875 74.410156 C 157.824219 74.378906 156.960938 74.308594 156.101562 74.199219 C 155.246094 74.085938 154.394531 73.929688 153.550781 73.734375 C 152.710938 73.535156 151.878906 73.300781 151.058594 73.019531 C 150.238281 72.742188 149.433594 72.425781 148.648438 72.066406 C 147.859375 71.710938 147.089844 71.316406 146.339844 70.882812 C 145.589844 70.449219 144.863281 69.980469 144.160156 69.476562 C 143.457031 68.96875 142.78125 68.433594 142.128906 67.863281 C 141.476562 67.289062 140.855469 66.6875 140.265625 66.054688 C 139.671875 65.425781 139.113281 64.765625 138.585938 64.078125 C 138.058594 63.390625 137.566406 62.679688 137.109375 61.941406 C 136.652344 61.207031 136.234375 60.449219 135.851562 59.671875 C 135.46875 58.894531 135.125 58.101562 134.820312 57.292969 C 134.515625 56.480469 134.25 55.65625 134.023438 54.820312 C 133.800781 53.984375 133.617188 53.136719 133.476562 52.28125 C 133.335938 51.425781 133.238281 50.566406 133.179688 49.703125 C 133.121094 48.839844 133.109375 47.972656 133.136719 47.105469 C 133.164062 46.242188 133.234375 45.378906 133.347656 44.519531 C 133.460938 43.660156 133.613281 42.808594 133.8125 41.964844 C 134.007812 41.121094 134.242188 40.289062 134.523438 39.46875 C 134.800781 38.648438 135.117188 37.84375 135.472656 37.054688 C 135.832031 36.265625 136.226562 35.492188 136.65625 34.742188 C 137.089844 33.992188 137.558594 33.265625 138.0625 32.5625 C 138.566406 31.855469 139.101562 31.179688 139.671875 30.527344 C 140.246094 29.875 140.84375 29.253906 141.476562 28.660156 C 142.109375 28.066406 142.765625 27.507812 143.453125 26.980469 C 144.140625 26.453125 144.851562 25.960938 145.585938 25.503906 C 146.320312 25.042969 147.074219 24.625 147.851562 24.242188 C 148.625 23.855469 149.417969 23.511719 150.230469 23.207031 C 151.039062 22.902344 151.863281 22.636719 152.699219 22.414062 C 153.535156 22.1875 154.378906 22.003906 155.230469 21.863281 C 156.085938 21.722656 156.945312 21.621094 157.808594 21.566406 C 158.671875 21.507812 159.535156 21.496094 160.398438 21.523438 C 161.265625 21.550781 162.125 21.621094 162.984375 21.734375 C 163.84375 21.847656 164.691406 22.003906 165.535156 22.199219 Z M 165.535156 22.199219"/><path d="M 147.582031 126.144531 C 146.304688 125.273438 145.085938 124.402344 143.964844 123.550781 C 133.101562 115.3125 127.171875 107.125 125.613281 104.816406 C 122.015625 99.285156 123.550781 91.984375 128.972656 88.445312 C 130.886719 87.191406 133.101562 86.527344 135.382812 86.527344 C 139.351562 86.527344 143.023438 88.511719 145.199219 91.832031 C 145.359375 92.0625 145.527344 92.296875 145.761719 92.613281 C 146.230469 93.234375 147.015625 94.242188 148.117188 95.5 C 149.226562 96.769531 150.757812 98.398438 152.667969 100.179688 C 153.957031 89.613281 149.484375 78.59375 140.707031 76.398438 C 137.121094 75.503906 132.957031 75.632812 128.820312 76.949219 C 124.5625 68.707031 98.058594 21.871094 61.890625 56.300781 C 43.101562 74.183594 60.039062 92.472656 65.519531 92.472656 C 71.003906 92.472656 27.9375 107.371094 45.164062 148.933594 C 62.390625 190.496094 97.515625 185.289062 102.214844 175.097656 C 102.765625 173.90625 103.558594 171.664062 104.527344 168.652344 C 107.15625 175.265625 111.605469 189.210938 111.582031 207.230469 C 111.554688 224.800781 107.539062 246.222656 93.367188 269.84375 C 89.183594 276.796875 91.421875 285.835938 98.371094 290.023438 C 100.742188 291.453125 103.351562 292.132812 105.933594 292.132812 C 110.910156 292.132812 115.765625 289.597656 118.523438 285.015625 C 135.605469 256.660156 140.980469 229.402344 140.949219 207.230469 C 140.9375 199.355469 140.277344 192.128906 139.273438 185.652344 L 167.886719 202.4375 L 177.605469 253.890625 C 178.9375 260.945312 185.097656 265.863281 192.015625 265.863281 C 192.921875 265.863281 193.839844 265.78125 194.757812 265.605469 C 202.726562 264.09375 207.960938 256.402344 206.457031 248.425781 L 195.496094 190.398438 C 194.703125 186.214844 192.15625 182.59375 188.488281 180.445312 L 144.871094 154.859375 C 144.75 145.300781 145.984375 135.40625 147.582031 126.144531 Z M 79.613281 77.832031 C 79.613281 72.375 84.03125 67.953125 89.480469 67.953125 C 94.929688 67.953125 99.34375 72.375 99.34375 77.832031 C 99.34375 83.292969 94.929688 87.714844 89.480469 87.714844 C 84.03125 87.714844 79.613281 83.292969 79.613281 77.832031 Z M 68.652344 73.027344 C 68.652344 63.625 76.257812 56.011719 85.640625 56.011719 C 92.574219 56.011719 98.53125 60.171875 101.171875 66.132812 L 99.601562 67.722656 C 97.011719 64.046875 92.742188 61.636719 87.902344 61.636719 C 79.996094 61.636719 73.585938 68.0625 73.585938 75.976562 C 73.585938 80.878906 76.042969 85.203125 79.789062 87.789062 L 78.929688 88.65625 C 72.882812 86.050781 68.652344 80.039062 68.652344 73.027344 Z M 68.652344 73.027344"/><g clip-path="url(#a)"><path d="M 286.382812 234.300781 L 228.441406 270.367188 L 159.535156 278.210938 L 110.207031 300.167969 L 62.050781 309.578125 L 2.152344 358.980469 L 372.511719 358.980469 L 372.511719 200.578125 Z M 286.382812 234.300781"/></g><path d="M 213.921875 140.621094 L 234.523438 251.757812 L 240.875 250.574219 L 220.230469 139.222656 C 219.429688 139.566406 218.585938 139.839844 217.695312 140.003906 C 216.433594 140.238281 215.175781 140.429688 213.921875 140.621094 Z M 213.921875 140.621094"/><path d="M 215.578125 116.679688 C 215.738281 116.679688 215.894531 116.695312 216.054688 116.699219 L 211.285156 90.988281 L 204.9375 92.167969 L 209.632812 117.492188 C 210.890625 117.3125 212.160156 117.109375 213.429688 116.875 C 214.140625 116.742188 214.859375 116.679688 215.578125 116.679688 Z M 215.578125 116.679688"/><path d="M 146.351562 97.050781 C 145.222656 95.761719 144.398438 94.710938 143.882812 94.019531 C 143.621094 93.675781 143.441406 93.417969 143.335938 93.265625 C 143.292969 93.207031 143.261719 93.160156 143.25 93.136719 C 143.238281 93.125 143.238281 93.125 143.238281 93.125 C 140.394531 88.792969 134.589844 87.578125 130.253906 90.414062 C 125.90625 93.253906 124.679688 99.082031 127.519531 103.433594 L 127.515625 103.433594 C 127.929688 104.042969 133.675781 112.800781 145.382812 121.675781 C 157.027344 130.519531 174.925781 139.445312 198.566406 139.449219 C 198.589844 139.449219 198.613281 139.449219 198.636719 139.449219 C 204.519531 139.449219 210.738281 138.898438 217.269531 137.691406 C 222.371094 136.746094 225.742188 131.839844 224.800781 126.730469 C 223.859375 121.621094 218.957031 118.242188 213.855469 119.1875 C 208.421875 120.191406 203.355469 120.628906 198.636719 120.628906 C 179.742188 120.609375 166.035156 113.675781 156.710938 106.65625 C 152.074219 103.152344 148.605469 99.628906 146.351562 97.050781 Z M 146.351562 97.050781"/></svg>