<svg width="72" height="80" viewBox="0 0 72 80" fill="none" xmlns="http://www.w3.org/2000/svg">
<path fill-rule="evenodd" clip-rule="evenodd" d="M44.7348 0.20392C45.038 0.261657 45.3371 0.332097 45.6305 0.414083C45.9254 0.49607 46.2146 0.590759 46.4982 0.695841C46.7818 0.802077 47.057 0.918707 47.3265 1.04688C47.5961 1.17506 47.8572 1.31363 48.1099 1.46259C48.3627 1.61155 48.607 1.77091 48.84 1.9395C49.0745 2.10809 49.2977 2.28592 49.5111 2.47299C49.7231 2.66006 49.9239 2.85521 50.1134 3.05845C50.303 3.26168 50.4799 3.47184 50.6441 3.68894C50.8084 3.90718 50.96 4.13005 51.0976 4.35984C51.2352 4.58964 51.3588 4.82405 51.4683 5.06423C51.5778 5.30442 51.6732 5.54692 51.7533 5.79519C51.8347 6.0423 51.8993 6.29173 51.9498 6.54462C52.0018 6.7975 52.0369 7.05155 52.0579 7.3079C52.0776 7.5631 52.0832 7.8183 52.0734 8.07465C52.0621 8.331 52.0369 8.5862 51.9976 8.84025C51.9569 9.09429 51.9007 9.34602 51.8305 9.59545C51.7603 9.84487 51.6747 10.0908 51.575 10.3333C51.4753 10.5758 51.3602 10.8137 51.2324 11.047C51.1046 11.2802 50.9628 11.5077 50.807 11.7294C50.6511 11.9511 50.4827 12.1671 50.3016 12.3749C50.1204 12.5828 49.9281 12.7837 49.7231 12.9765C49.5181 13.1694 49.3019 13.353 49.0759 13.5273C48.8484 13.7029 48.6112 13.8692 48.3641 14.025C48.1184 14.1809 47.8628 14.3264 47.5989 14.4615C47.3349 14.5966 47.0626 14.7214 46.7846 14.8345C46.5052 14.9477 46.2202 15.0493 45.9296 15.1405C45.6375 15.2306 45.3427 15.3091 45.0423 15.3749C44.7418 15.4408 44.4385 15.495 44.1311 15.5378C43.825 15.5793 43.5161 15.6082 43.2058 15.6255C42.8956 15.6417 42.5839 15.6463 42.2736 15.6382C41.9633 15.629 41.653 15.6082 41.3442 15.5759C41.0367 15.5424 40.7306 15.4962 40.4274 15.4384C40.1255 15.3796 39.8265 15.3103 39.5316 15.2271C39.2368 15.1451 38.9476 15.0516 38.6654 14.9454C38.3818 14.8403 38.1052 14.7237 37.8356 14.5955C37.5661 14.4673 37.3049 14.3287 37.0522 14.1798C36.7995 14.0297 36.5566 13.8715 36.3221 13.7029C36.0877 13.5331 35.8644 13.3553 35.6524 13.1682C35.439 12.9823 35.2383 12.7872 35.0487 12.5839C34.8592 12.3807 34.6823 12.1705 34.518 11.9523C34.3538 11.7352 34.2035 11.5112 34.0659 11.2814C33.9283 11.0516 33.8048 10.8172 33.6953 10.5781C33.5858 10.3379 33.4903 10.0943 33.4089 9.84718C33.3288 9.60007 33.2629 9.34949 33.2123 9.0966C33.1618 8.84371 33.1267 8.58967 33.1056 8.33447C33.0846 8.07927 33.0803 7.82292 33.0902 7.56656C33.1 7.31137 33.1253 7.05617 33.166 6.80212C33.2067 6.54808 33.2615 6.29635 33.3331 6.04692C33.4033 5.7975 33.4875 5.55154 33.5886 5.30904C33.6883 5.06654 33.802 4.82867 33.9298 4.59541C34.0589 4.36215 34.2007 4.13351 34.3552 3.9118C34.511 3.69009 34.6795 3.47531 34.8606 3.26745C35.0417 3.05845 35.2341 2.85868 35.439 2.66583C35.6454 2.47299 35.8602 2.28939 36.0877 2.11387C36.3151 1.93834 36.551 1.77322 36.7981 1.61733C37.0452 1.46144 37.3007 1.31594 37.5647 1.18083C37.8286 1.04457 38.0996 0.921016 38.379 0.807851C38.657 0.693531 38.942 0.591914 39.234 0.501844C39.5246 0.411774 39.8209 0.333252 40.1213 0.267431C40.4218 0.200456 40.725 0.146183 41.0311 0.104612C41.3386 0.0630415 41.6474 0.0330183 41.9577 0.0168518C42.268 -0.000469473 42.5783 -0.0039337 42.8885 0.00414957C43.2002 0.0122326 43.5091 0.0330182 43.818 0.0665057C44.1269 0.0999932 44.4315 0.146183 44.7348 0.20392ZM38.2821 30.9315C37.823 30.674 37.385 30.4165 36.982 30.1647C33.0776 27.7294 30.9463 25.309 30.3861 24.6266C29.0931 22.9915 29.6448 20.8333 31.5935 19.7871C32.2815 19.4164 33.0776 19.2201 33.8975 19.2201C35.3239 19.2201 36.6437 19.8067 37.4257 20.7882C37.4832 20.8563 37.5436 20.9256 37.6279 21.0192C37.7963 21.2028 38.0785 21.5007 38.4745 21.8725C38.8732 22.2478 39.4235 22.7293 40.1101 23.2559C40.5734 20.1323 38.9658 16.8748 35.8111 16.2258C34.5223 15.9614 33.0256 15.9995 31.5388 16.3886C30.0085 13.9521 20.4825 0.106767 7.48301 10.2847C0.729867 15.5711 6.81752 20.9776 8.78731 20.9776C9.19792 20.9776 8.85134 21.1687 8.10119 21.5823C5.25012 23.1545 -3.43064 27.9411 1.47117 37.6683C7.66272 49.9547 20.2873 48.4155 21.9763 45.4027C22.1743 45.0505 22.4593 44.3877 22.8074 43.4974C23.7523 45.4524 25.3515 49.5748 25.343 54.9016C25.3332 60.0957 23.8899 66.4283 18.7963 73.411C17.2926 75.4665 18.0971 78.1385 20.5948 79.3764C21.447 79.7991 22.3848 80 23.3129 80C25.1015 80 26.8467 79.2506 27.8379 77.8961C33.9775 69.5138 35.9094 61.456 35.8982 54.9016C35.8939 52.5737 35.6567 50.4374 35.2958 48.5229L45.58 53.4848L49.0731 68.6951C49.5519 70.7805 51.7659 72.2344 54.2524 72.2344C54.5781 72.2344 54.908 72.2101 55.238 72.1581C58.1021 71.7113 59.9834 69.4376 59.4429 67.0796L55.5033 49.9259C55.2183 48.6891 54.3029 47.6187 52.9846 46.9836L37.3077 39.42C37.2642 36.5943 37.7079 33.6694 38.2821 30.9315ZM13.8529 16.6496C13.8529 15.0364 15.4408 13.7293 17.3993 13.7293C19.3579 13.7293 20.9444 15.0364 20.9444 16.6496C20.9444 18.264 19.3579 19.5711 17.3993 19.5711C15.4408 19.5711 13.8529 18.264 13.8529 16.6496ZM9.9133 15.2293C9.9133 12.4498 12.6468 10.1992 16.0192 10.1992C18.5113 10.1992 20.6523 11.429 21.6014 13.1912L21.037 13.6611C20.1062 12.5745 18.5716 11.8621 16.8321 11.8621C13.9905 11.8621 11.6865 13.7616 11.6865 16.1011C11.6865 17.5503 12.5696 18.8286 13.916 19.5931L13.6072 19.8494C11.4338 19.0792 9.9133 17.302 9.9133 15.2293ZM69.5304 68.0646L62.1258 35.211L62.1446 35.2087H62.1446H62.1447C62.5891 35.1529 63.0349 35.0969 63.482 35.0286C63.8021 34.9801 64.1054 34.8992 64.3932 34.7976L71.8132 67.7147L69.5304 68.0646ZM62.8185 28.1366L62.8186 28.1366C62.8431 28.1377 62.8675 28.1389 62.8923 28.1394L61.178 20.5388L58.8965 20.8876L60.5841 28.3738C61.0362 28.3207 61.4925 28.2606 61.9488 28.1913C62.2043 28.1521 62.4626 28.1336 62.721 28.1336C62.7538 28.1336 62.7861 28.1351 62.8185 28.1366ZM36.9523 21.4348C37.1377 21.6392 37.4339 21.9498 37.8396 22.3309C38.6497 23.093 39.8965 24.1346 41.563 25.1704C44.9143 27.2455 49.8409 29.2951 56.6319 29.3009C58.3279 29.3009 60.1489 29.1716 62.1018 28.8748C63.9354 28.5953 65.6974 29.5942 66.0358 31.1046C66.3741 32.615 65.1625 34.0654 63.3289 34.3448C60.9814 34.7016 58.7463 34.8644 56.6319 34.8644H56.6066C48.1098 34.8633 41.6767 32.2247 37.4915 29.6104C33.3903 27.0533 31.3245 24.5291 31.0847 24.236C31.0784 24.2284 31.0734 24.2223 31.0697 24.2177H31.0711C30.0504 22.9313 30.4912 21.2085 32.0538 20.369C33.6123 19.5306 35.6986 19.8897 36.7207 21.1703L36.7249 21.1738C36.7291 21.1807 36.7403 21.1946 36.7558 21.2119C36.7937 21.257 36.8583 21.3332 36.9523 21.4348Z" fill="black"/>
</svg>
