<svg width="87" height="80" viewBox="0 0 87 80" fill="none" xmlns="http://www.w3.org/2000/svg">
<path fill-rule="evenodd" clip-rule="evenodd" d="M67.4342 0C66.012 0.385487 65.2294 0.867579 64.2729 1.65249C63.1368 2.47362 61.7744 2.62039 61.2359 4.06573C59.5818 4.45772 59.5902 6.37587 59.2854 7.59178C59.1349 9.03712 58.3214 9.60932 57.7445 10.8178C56.9085 11.8507 56.8384 13.0917 56.4616 14.3327C54.7206 14.5956 55.9726 16.4515 55.1432 17.464C54.6205 19.0171 55.3059 20.9324 54.7963 22.4391C53.5069 23.146 51.6696 22.8534 50.1641 23.1859C48.741 23.4348 47.6919 24.7121 46.094 24.5634C41.6834 24.9833 37.2074 24.6285 32.7707 24.7455C29.7178 24.8495 26.5976 24.5402 23.5868 24.896C22.2731 25.2954 21.0987 25.4812 20.202 26.5754C19.0958 26.9535 17.9616 27.9799 16.5591 27.7151C15.3108 27.0649 14.1719 25.8871 14.0644 24.5291C14.7582 24.0284 15.2257 22.3583 16.0598 21.539C15.8438 20.0147 18.0645 20.6668 18.892 19.9562C19.0631 18.8907 21.5755 18.4021 22.2226 19.4787C23.3792 20.533 25.2025 19.3292 25.038 17.8374C25.0557 16.145 24.2965 14.3875 22.5442 13.858C22.245 12.0904 20.259 12.7378 19.3193 11.821C17.0107 11.4987 15.3809 9.35759 12.8694 9.89913C11.2892 9.78674 9.80067 9.92049 8.35698 10.4927C5.05818 10.632 1.94172 13.3091 1.59482 16.549C2.23158 18.1811 0.45502 18.822 0.59808 20.2516C2.17174 20.6473 1.25728 22.4577 2.32134 23.4413C2.7206 24.7529 4.17084 25.7422 4.82723 26.7259C6.2784 27.4606 7.10123 27.9957 9.01524 27.7151C9.93251 27.2275 12.0382 26.6311 12.2392 27.8833C13.3024 28.8605 14.1888 29.911 14.0654 31.3759C14.3431 32.9931 11.8718 32.8863 12.07 34.6437C11.2855 35.9924 10.1279 37.2325 9.49959 38.5766C9.51455 40.1316 8.89836 41.3456 8.07086 42.2058C8.0213 45.977 10.8068 49.1102 10.7656 52.8926C10.847 54.5924 10.0615 56.2329 10.1756 58.1287C9.92316 59.4644 10.2411 61.1782 9.65761 62.2929C8.39251 62.8075 8.44487 64.3039 7.92125 65.5171C6.90207 67.02 5.3443 68.3288 4.43732 69.8206C5.36862 71.3495 2.42233 72.5747 4.43732 73.0485C4.40553 74.7307 5.92122 75.1087 5.93431 76.4723C7.08159 77.1876 8.14005 77.652 9.22375 78.5242C10.286 79.7578 11.7951 79.4894 13.2939 79.4819C14.8143 79.5126 17.2332 79.8293 17.4062 77.7598C18.4507 74.7938 17.0229 71.2501 15.2295 68.5657C14.0336 65.7056 17.1781 63.0843 19.5727 61.9399C20.6227 61.2135 22.3881 60.9061 22.7583 59.7784C24.5228 59.4394 23.6074 57.3707 25.2521 56.8088C26.2311 56.166 26.4863 54.7838 27.1399 53.7342C27.1923 52.1838 28.477 51.8476 28.5303 50.5221C28.3068 48.7962 29.3597 47.2756 29.0277 45.5321C29.3634 43.8387 30.4312 43.9047 32.1582 44.0477C33.4748 44.1871 34.6005 44.7463 35.7263 45.1429C37.3748 45.0964 37.2616 47.3731 38.9634 47.0165C39.9209 47.8042 40.8811 48.5872 41.9966 48.9968C42.9681 49.6963 44.4558 49.9257 45.489 50.4812C46.3838 51.5884 47.6863 51.7166 48.9393 51.9665C50.4746 51.8922 50.1408 52.0334 51.7135 51.7315C53.4237 51.2234 52.6308 53.4388 52.6766 54.4317C52.685 55.9867 54.4616 56.3908 54.5289 57.8231C58.7945 60.5475 56.1025 66.5881 56.1025 66.5881C55.0731 67.6052 52.383 71.4257 52.1389 72.7652C52.1642 76.1026 53.5602 77.6845 58.9095 79.9677C60.5346 79.8451 62.3616 80.2074 63.868 79.8005C65.4005 78.854 65.7091 76.2977 65.7661 74.8616C65.1948 70.8702 63.5342 69.8159 64.0279 66.0763C64.1429 61.6399 65.2846 58.2764 68.5394 55.2148C69.4838 52.7458 69.6044 50.1115 69.9298 47.5729C69.9494 46.1498 72.0317 45.5748 72.4235 44.305C72.4497 42.8876 73.8242 42.137 73.9196 40.8617C73.9158 39.4943 73.7616 38.0927 74.4189 36.8814V29.6955C72.6713 28.2316 75.3464 27.9084 75.4166 26.7463C76.4171 25.8955 76.9154 24.6201 76.9126 23.302C76.3413 21.6978 78.9949 22.1047 79.7448 22.6072C81.0913 23.1785 82.3339 22.4669 83.5401 21.9533C84.8894 21.8307 84.9829 19.8763 86.5584 20.1243C87.715 18.705 86.3172 17.6748 85.0539 17.4816C84.0525 16.6503 82.9165 16.1403 81.901 15.3433C80.3937 14.8891 79.4475 14.0921 79.9047 12.4341C81.57 12.3068 81.7682 11.0082 82.3994 9.89913C83.9356 8.09524 82.3124 6.51799 81.901 4.71223C81.3886 3.56878 80.0899 2.68541 79.0679 2.13922C76.9902 1.13324 74.7106 0.385487 72.4432 0H67.4342Z" fill="black"/>
</svg>
