<svg xmlns="http://www.w3.org/2000/svg" width="375" viewBox="0 0 375 375" height="375" version="1.0"><defs><clipPath id="a"><path d="M 5.273438 18.195312 L 367 18.195312 L 367 356 L 5.273438 356 Z M 5.273438 18.195312"/></clipPath></defs><g clip-path="url(#a)"><path d="M 285.125 18.597656 C 279.183594 20.21875 275.914062 22.246094 271.917969 25.546875 C 267.171875 29 261.480469 29.617188 259.230469 35.695312 C 252.320312 37.34375 252.355469 45.410156 251.082031 50.523438 C 250.453125 56.601562 247.054688 59.007812 244.644531 64.089844 C 241.152344 68.433594 240.859375 73.652344 239.285156 78.871094 C 232.011719 79.976562 237.242188 87.78125 233.777344 92.039062 C 231.59375 98.570312 234.457031 106.625 232.328125 112.960938 C 226.941406 115.933594 219.265625 114.703125 212.976562 116.101562 C 207.03125 117.148438 202.648438 122.519531 195.972656 121.894531 C 177.546875 123.660156 158.847656 122.167969 140.3125 122.660156 C 127.558594 123.097656 114.523438 121.796875 101.945312 123.292969 C 96.457031 124.972656 91.550781 125.753906 87.804688 130.355469 C 83.183594 131.945312 78.445312 136.261719 72.585938 135.148438 C 67.371094 132.414062 62.613281 127.460938 62.164062 121.75 C 65.0625 119.644531 67.015625 112.621094 70.5 109.175781 C 69.597656 102.765625 78.875 105.507812 82.332031 102.519531 C 83.046875 98.039062 93.542969 95.984375 96.246094 100.511719 C 101.078125 104.945312 108.695312 99.882812 108.007812 93.609375 C 108.082031 86.492188 104.910156 79.101562 97.589844 76.875 C 96.339844 69.441406 88.042969 72.164062 84.117188 68.308594 C 74.472656 66.953125 67.664062 57.949219 57.171875 60.226562 C 50.570312 59.753906 44.351562 60.316406 38.320312 62.722656 C 24.539062 63.308594 11.519531 74.566406 10.070312 88.191406 C 12.730469 95.054688 5.308594 97.75 5.90625 103.761719 C 12.480469 105.425781 8.660156 113.039062 13.105469 117.175781 C 14.773438 122.691406 20.832031 126.851562 23.574219 130.988281 C 29.636719 134.078125 33.074219 136.328125 41.070312 135.148438 C 44.902344 133.097656 53.699219 130.589844 54.539062 135.855469 C 58.980469 139.964844 62.683594 144.382812 62.167969 150.542969 C 63.328125 157.34375 53.003906 156.894531 53.832031 164.285156 C 50.554688 169.957031 45.71875 175.171875 43.09375 180.824219 C 43.15625 187.363281 40.582031 192.46875 37.125 196.085938 C 36.917969 211.945312 48.554688 225.121094 48.382812 241.027344 C 48.722656 248.175781 45.441406 255.074219 45.917969 263.046875 C 44.863281 268.664062 46.191406 275.871094 43.753906 280.558594 C 38.46875 282.722656 38.6875 289.015625 36.5 294.117188 C 32.242188 300.4375 25.734375 305.941406 21.945312 312.214844 C 25.835938 318.644531 13.527344 323.796875 21.945312 325.789062 C 21.8125 332.863281 28.144531 334.453125 28.199219 340.1875 C 32.992188 343.195312 37.414062 345.148438 41.941406 348.816406 C 46.378906 354.003906 52.683594 352.875 58.945312 352.84375 C 65.296875 352.972656 75.402344 354.304688 76.125 345.601562 C 80.488281 333.128906 74.523438 318.226562 67.03125 306.9375 C 62.035156 294.910156 75.171875 283.886719 85.175781 279.074219 C 89.5625 276.019531 96.9375 274.726562 98.484375 269.984375 C 105.855469 268.558594 102.03125 259.859375 108.902344 257.496094 C 112.992188 254.792969 114.058594 248.980469 116.789062 244.566406 C 117.007812 238.046875 122.375 236.632812 122.597656 231.058594 C 121.664062 223.800781 126.0625 217.40625 124.675781 210.074219 C 126.078125 202.953125 130.539062 203.230469 137.753906 203.832031 C 143.253906 204.417969 147.957031 206.769531 152.660156 208.4375 C 159.546875 208.242188 159.074219 217.816406 166.183594 216.316406 C 170.183594 219.628906 174.195312 222.921875 178.855469 224.644531 C 182.914062 227.585938 189.128906 228.550781 193.445312 230.886719 C 197.183594 235.542969 202.625 236.082031 207.859375 237.132812 C 214.273438 236.820312 212.878906 237.414062 219.449219 236.144531 C 226.59375 234.007812 223.28125 243.324219 223.472656 247.5 C 223.507812 254.039062 230.929688 255.738281 231.210938 261.761719 C 249.03125 273.21875 237.785156 298.621094 237.785156 298.621094 C 233.484375 302.898438 222.246094 318.964844 221.226562 324.597656 C 221.332031 338.632812 227.164062 345.285156 249.511719 354.886719 C 256.300781 354.371094 263.933594 355.894531 270.226562 354.183594 C 276.628906 350.203125 277.917969 339.453125 278.15625 333.414062 C 275.769531 316.628906 268.832031 312.195312 270.894531 296.46875 C 271.375 277.8125 276.144531 263.667969 289.742188 250.792969 C 293.6875 240.410156 294.191406 229.332031 295.550781 218.65625 C 295.632812 212.671875 304.332031 210.253906 305.96875 204.914062 C 306.078125 198.953125 311.820312 195.796875 312.21875 190.433594 C 312.203125 184.683594 311.558594 178.789062 314.304688 173.695312 L 314.304688 143.476562 C 307.003906 137.320312 318.179688 135.960938 318.472656 131.074219 C 322.652344 127.496094 324.734375 122.132812 324.722656 116.589844 C 322.335938 109.84375 333.421875 111.554688 336.554688 113.667969 C 342.179688 116.070312 347.371094 113.078125 352.410156 110.917969 C 358.046875 110.402344 358.4375 102.183594 365.019531 103.226562 C 369.851562 97.257812 364.011719 92.925781 358.734375 92.113281 C 354.550781 88.617188 349.804688 86.472656 345.5625 83.121094 C 339.265625 81.210938 335.3125 77.859375 337.222656 70.886719 C 344.179688 70.351562 345.007812 64.890625 347.644531 60.226562 C 354.0625 52.640625 347.28125 46.007812 345.5625 38.414062 C 343.421875 33.605469 337.996094 29.890625 333.726562 27.59375 C 325.046875 23.363281 315.523438 20.21875 306.050781 18.597656 Z M 285.125 18.597656" fill-rule="evenodd"/></g></svg>