<svg xmlns="http://www.w3.org/2000/svg" width="375" viewBox="0 0 375 375" height="375" version="1.0"><defs><clipPath id="a"><path d="M 22.851562 146 L 352.101562 146 L 352.101562 352.101562 L 22.851562 352.101562 Z M 22.851562 146"/></clipPath><clipPath id="b"><path d="M 22.851562 22.851562 L 352.101562 22.851562 L 352.101562 119 L 22.851562 119 Z M 22.851562 22.851562"/></clipPath></defs><g clip-path="url(#a)"><path d="M 22.851562 146.320312 L 22.851562 324.664062 C 22.851562 339.75 35.199219 352.101562 50.289062 352.101562 L 77.71875 352.101562 L 77.71875 269.789062 L 64.007812 242.351562 L 77.710938 187.476562 L 105.140625 187.476562 L 118.867188 242.351562 L 105.152344 269.789062 L 105.140625 352.101562 L 180.621094 352.101562 L 180.621094 273.917969 C 164.433594 266.183594 153.179688 249.816406 153.179688 230.695312 C 153.179688 211.578125 164.433594 195.207031 180.621094 187.476562 L 180.621094 230.695312 C 180.621094 242.058594 189.839844 251.273438 201.199219 251.273438 C 212.5625 251.273438 221.75 242.058594 221.75 230.695312 L 221.75 187.476562 C 237.933594 195.207031 249.1875 211.578125 249.1875 230.695312 C 249.1875 249.816406 237.933594 266.183594 221.75 273.917969 L 221.75 352.101562 L 283.511719 352.101562 L 283.511719 214.914062 L 297.226562 187.476562 L 310.945312 214.914062 L 310.945312 352.101562 L 324.664062 352.101562 C 339.75 352.101562 352.101562 339.75 352.101562 324.664062 L 352.101562 146.320312 Z M 22.851562 146.320312"/></g><g clip-path="url(#b)"><path d="M 352.101562 118.882812 L 352.101562 105.164062 C 352.101562 90.078125 339.75 77.726562 324.664062 77.726562 L 256.070312 77.726562 L 256.070312 50.285156 C 256.070312 35.136719 243.785156 22.851562 228.632812 22.851562 L 146.320312 22.851562 C 131.167969 22.851562 118.882812 35.136719 118.882812 50.289062 L 118.882812 77.730469 L 50.289062 77.730469 C 35.199219 77.726562 22.851562 90.078125 22.851562 105.164062 L 22.851562 118.882812 Z M 146.320312 50.289062 L 228.632812 50.289062 L 228.632812 77.730469 L 146.320312 77.730469 Z M 146.320312 50.289062"/></g></svg>