<svg xmlns="http://www.w3.org/2000/svg" width="375" viewBox="0 0 375 375" height="375" version="1.0"><defs><clipPath id="a"><path d="M 10 23 L 367 23 L 367 350 L 10 350 Z M 10 23"/></clipPath><clipPath id="b"><path d="M 96.535156 -15.453125 L 394.703125 165.445312 L 244.144531 413.597656 L -54.019531 232.695312 Z M 96.535156 -15.453125"/></clipPath><clipPath id="c"><path d="M 96.535156 -15.453125 L 394.703125 165.445312 L 244.144531 413.597656 L -54.019531 232.695312 Z M 96.535156 -15.453125"/></clipPath><clipPath id="d"><path d="M 96.535156 -15.453125 L 394.703125 165.445312 L 244.144531 413.597656 L -54.019531 232.695312 Z M 96.535156 -15.453125"/></clipPath></defs><g clip-path="url(#a)"><g clip-path="url(#b)"><g clip-path="url(#c)"><g clip-path="url(#d)"><path fill="#1E1E1E" d="M 163.183594 210.496094 L 139.296875 349.976562 L 160.484375 349.988281 L 216.445312 261.273438 C 222.714844 262.359375 229.078125 262.910156 235.460938 262.914062 L 245.875 262.917969 C 248.1875 262.917969 250.0625 261.121094 250.066406 258.902344 L 250.078125 252.144531 L 250.085938 247.65625 L 250.097656 240.898438 C 250.097656 238.679688 248.230469 236.878906 245.921875 236.875 L 235.503906 236.871094 C 234.265625 236.867188 233.03125 236.890625 231.796875 236.933594 L 248.441406 210.550781 L 306.855469 210.582031 C 367.304688 210.621094 366.757812 186.972656 366.757812 186.972656 C 366.757812 186.972656 367.382812 163.328125 306.9375 163.289062 L 248.519531 163.253906 L 231.964844 136.855469 C 233.203125 136.894531 234.4375 136.917969 235.671875 136.917969 L 246.089844 136.925781 C 248.398438 136.925781 250.273438 135.128906 250.277344 132.910156 L 250.289062 126.152344 L 250.296875 121.660156 L 250.308594 114.902344 C 250.3125 112.683594 248.441406 110.882812 246.132812 110.882812 L 235.714844 110.878906 C 229.332031 110.871094 222.96875 111.414062 216.695312 112.492188 L 161.035156 23.714844 L 139.847656 23.699219 L 163.265625 163.203125 L 86.535156 163.160156 C 79.480469 163.152344 72.453125 163.726562 65.519531 164.847656 L 34.078125 108.046875 L 21.613281 108.039062 L 29.351562 175.507812 L 15.011719 180.6875 C 12.378906 181.640625 10.632812 184.058594 10.625 186.757812 C 10.621094 189.460938 12.359375 191.878906 14.992188 192.835938 L 29.3125 198.03125 L 21.347656 265.492188 L 33.808594 265.5 L 65.449219 208.738281 C 72.375 209.867188 79.402344 210.449219 86.457031 210.453125 L 163.183594 210.496094"/></g></g></g></g></svg>