<svg width="296" height="296" viewBox="0 0 296 296" fill="none" xmlns="http://www.w3.org/2000/svg">
<path fill-rule="evenodd" clip-rule="evenodd" d="M295.961 147.975C295.961 147.975 297.716 79.9755 256.856 39.1157C215.996 -1.74334 147.997 0.0109711 147.997 0.0109711C147.997 0.0109711 147.987 0.361206 147.986 1.02632C147.986 0.745421 147.983 0.520701 147.982 0.354765C147.979 0.127853 147.975 0.0109711 147.975 0.0109711C147.975 0.0109711 79.9755 -1.74334 39.1157 39.1157C-1.74334 79.9755 0.0109711 147.975 0.0109711 147.975C0.0109711 147.975 68.0112 149.729 108.87 108.87C146.217 71.524 147.963 11.5033 147.986 1.45849C148.011 11.5033 149.756 71.524 187.102 108.87C227.961 149.729 295.961 147.975 295.961 147.975ZM39.1157 256.856C-1.74334 215.996 0.0109711 147.997 0.0109711 147.997C0.0109711 147.997 68.0112 146.243 108.87 187.102C146.217 224.448 147.963 284.469 147.986 294.514C148.011 284.469 149.756 224.448 187.102 187.102C227.961 146.243 295.961 147.997 295.961 147.997C295.961 147.997 297.716 215.996 256.856 256.856C215.996 297.715 147.997 295.961 147.997 295.961C147.997 295.961 147.987 295.61 147.986 294.946C147.985 295.61 147.975 295.961 147.975 295.961C147.975 295.961 79.9755 297.715 39.1157 256.856Z" fill="#E0C2C6" fill-opacity="0.25"/>
</svg>
