<svg width="88" height="80" viewBox="0 0 88 80" fill="none" xmlns="http://www.w3.org/2000/svg">
<path d="M37.4045 45.7991L31.5479 79.9971L36.7427 80L50.4633 58.2488C52.0005 58.515 53.5606 58.6501 55.1256 58.651L57.6789 58.652C58.2459 58.652 58.7056 58.2114 58.7066 57.6674L58.7094 56.0105L58.7114 54.9101L58.7142 53.2532C58.7142 52.7092 58.2564 52.2677 57.6904 52.2667L55.1361 52.2658C54.8325 52.2648 54.5299 52.2706 54.2272 52.2811L58.3082 45.8125L72.6302 45.8202C87.4512 45.8298 87.3171 40.0316 87.3171 40.0316C87.3171 40.0316 87.4704 34.2344 72.6503 34.2248L58.3273 34.2162L54.2684 27.7438C54.572 27.7534 54.8747 27.7591 55.1773 27.7591L57.7316 27.761C58.2976 27.761 58.7573 27.3205 58.7583 26.7765L58.7612 25.1196L58.7631 24.0182L58.766 22.3613C58.7669 21.8173 58.3082 21.3758 57.7421 21.3758L55.1878 21.3748C53.6229 21.3729 52.0627 21.506 50.5246 21.7704L36.8778 0.00383096L31.683 0L37.4246 34.2038L18.6118 34.1932C16.8821 34.1913 15.1591 34.3321 13.4591 34.607L5.75027 20.6805L2.69412 20.6786L4.59141 37.2206L1.07554 38.4906C0.430027 38.7243 0.00191697 39.3171 1.61064e-06 39.9789C-0.000956068 40.6417 0.425238 41.2345 1.07075 41.4692L4.58183 42.743L2.629 59.2831L5.68419 59.285L13.4419 45.3681C15.14 45.6449 16.8629 45.7876 18.5926 45.7886L37.4045 45.7991Z" fill="#1E1E1E"/>
</svg>
