<svg width="75" height="80" viewBox="0 0 75 80" fill="none" xmlns="http://www.w3.org/2000/svg">
<path fill-rule="evenodd" clip-rule="evenodd" d="M51.8187 13.6663C51.8187 17.5465 48.1105 20.6924 43.5348 20.6924C38.9622 20.6924 35.2539 17.5465 35.2539 13.6663C35.2539 9.78174 38.9622 6.63936 43.5348 6.63936C43.7808 6.63936 44.0149 6.6669 44.2502 6.69459C44.3302 6.70401 44.4104 6.71345 44.4913 6.72182C44.4565 5.97963 44.5896 5.27824 44.8835 4.62546C45.6024 2.99871 47.2748 1.66971 49.7869 0.839848C54.3216 -0.65582 60.9936 -0.237415 63.7014 2.77215C64.2247 3.35288 64.0946 4.18535 63.4085 4.6298C62.7244 5.07164 61.7412 4.9614 61.2179 4.37893C59.6244 2.60635 54.6207 2.08551 50.9206 3.31122C49.7777 3.68882 48.514 4.32337 47.9292 5.3173C47.6834 5.73571 47.5472 6.2114 47.6076 6.76696C47.6353 7.03085 47.5472 7.27304 47.412 7.49093C50.0225 8.67149 51.8187 10.9779 51.8187 13.6663ZM69.4043 34.7208C70.1836 33.0073 70.6199 31.1479 70.6199 29.1965C70.6199 21.2077 63.4788 14.6365 54.3152 13.8231C54.2128 18.7989 49.4272 22.8241 43.5345 22.8241C38.0607 22.8241 33.5731 19.3371 32.8818 14.8518C30.6308 14.0922 28.1791 13.666 25.6056 13.666C14.6917 13.666 5.84351 21.1669 5.84351 30.4204C5.84351 31.6505 6.00839 32.8449 6.30538 33.996C2.53977 35.8076 0 39.2356 0 43.1636C0 48.99 5.56394 53.7114 12.4326 53.7114C16.3661 53.7114 19.8696 52.1593 22.1462 49.7461C24.4238 52.1593 27.9272 53.7114 31.8587 53.7114C35.5107 53.7114 38.7827 52.3711 41.0603 50.24C43.3399 52.3711 46.6078 53.7114 50.2608 53.7114C52.7063 53.7114 54.9788 53.1063 56.9021 52.0759C58.6164 52.8824 60.595 53.3407 62.7026 53.3407C69.3295 53.3407 74.7009 48.7886 74.7009 43.1636C74.7009 39.6514 72.5984 36.5516 69.4043 34.7208ZM56.9873 54.4815C54.9073 55.3756 52.6082 55.8434 50.261 55.8434C46.9163 55.8434 43.6729 54.8773 41.0605 53.1412C38.449 54.8773 35.2077 55.8434 31.8589 55.8434C28.249 55.8434 24.8315 54.7549 22.1463 52.8018C19.4612 54.7549 16.0417 55.8434 12.4328 55.8434C12.1572 55.8434 11.8852 55.8268 11.6132 55.8101L11.4619 55.8009L15.1036 79.9998H60.0954L63.7985 55.425C63.434 55.4493 63.0714 55.4728 62.7028 55.4728C60.7314 55.4728 58.7815 55.1342 56.9873 54.4815Z" fill="black"/>
</svg>
